<svg width="83" height="23" viewBox="0 0 83 23" fill="none" xmlns="http://www.w3.org/2000/svg">
<path d="M2.95043e-06 18.216V14.736L5.664 5.496H0.216003V1.704H11.136V5.208L5.568 14.424H11.256V18.216H2.95043e-06ZM17.2024 18.408C16.1304 18.408 15.2584 18.216 14.5864 17.832C13.9304 17.448 13.4504 16.928 13.1464 16.272C12.8424 15.616 12.6904 14.88 12.6904 14.064V6.192H17.7544V13.368C17.7544 13.736 17.8584 14.024 18.0664 14.232C18.2904 14.424 18.5544 14.52 18.8584 14.52C19.1784 14.52 19.5064 14.424 19.8424 14.232L20.1064 17.568C19.7544 17.84 19.2984 18.048 18.7384 18.192C18.1784 18.336 17.6664 18.408 17.2024 18.408ZM15.2344 4.872C14.4984 4.872 13.8664 4.64 13.3384 4.176C12.8104 3.696 12.5464 3.112 12.5464 2.424C12.5464 1.944 12.6744 1.528 12.9304 1.176C13.1864 0.808002 13.5224 0.520002 13.9384 0.312002C14.3544 0.104002 14.7864 1.90735e-06 15.2344 1.90735e-06C15.7304 1.90735e-06 16.1784 0.112002 16.5784 0.336002C16.9944 0.560003 17.3224 0.856003 17.5624 1.224C17.8184 1.592 17.9464 1.992 17.9464 2.424C17.9464 2.904 17.8104 3.328 17.5384 3.696C17.2824 4.064 16.9464 4.352 16.5304 4.56C16.1304 4.768 15.6984 4.872 15.2344 4.872ZM21.3405 18.216V6.192H26.3325V8.808C26.7005 7.912 27.2445 7.224 27.9645 6.744C28.7005 6.264 29.5725 6.024 30.5805 6.024C32.1485 6.024 33.3645 6.568 34.2285 7.656C35.0925 8.728 35.5245 10.248 35.5245 12.216V18.216H30.4605V11.952C30.4605 10.528 29.8845 9.816 28.7325 9.816C28.0445 9.816 27.4845 10.072 27.0525 10.584C26.6205 11.08 26.4045 11.752 26.4045 12.6V18.216H21.3405ZM44.9456 22.896C44.3376 22.896 43.7696 22.856 43.2416 22.776C42.7136 22.696 42.2976 22.6 41.9936 22.488L42.3776 19.008C42.6656 19.072 42.9776 19.12 43.3136 19.152C43.6496 19.2 43.9776 19.224 44.2976 19.224C45.3696 19.224 46.1376 19 46.6016 18.552C47.0816 18.104 47.3216 17.416 47.3216 16.488V15.36C46.8736 16.24 46.3216 16.888 45.6656 17.304C45.0096 17.72 44.1856 17.928 43.1936 17.928C42.0576 17.928 41.0336 17.672 40.1216 17.16C39.2096 16.632 38.4896 15.92 37.9616 15.024C37.4496 14.112 37.1936 13.072 37.1936 11.904C37.1936 10.736 37.4496 9.712 37.9616 8.832C38.4896 7.952 39.2096 7.264 40.1216 6.768C41.0336 6.272 42.0576 6.024 43.1936 6.024C43.9936 6.024 44.7616 6.24 45.4976 6.672C46.2336 7.088 46.7936 7.768 47.1776 8.712V6.192H52.2176V15.408C52.2176 17.968 51.5856 19.856 50.3216 21.072C49.0576 22.288 47.2656 22.896 44.9456 22.896ZM44.7536 14.136C45.4416 14.136 46.0176 13.92 46.4816 13.488C46.9456 13.056 47.1776 12.536 47.1776 11.928C47.1776 11.32 46.9456 10.816 46.4816 10.416C46.0176 10.016 45.4416 9.816 44.7536 9.816C44.0176 9.816 43.4096 10.024 42.9296 10.44C42.4656 10.856 42.2336 11.368 42.2336 11.976C42.2336 12.568 42.4656 13.08 42.9296 13.512C43.4096 13.928 44.0176 14.136 44.7536 14.136ZM62.0858 15.048C62.5498 15.048 63.0378 15 63.5498 14.904C64.0778 14.808 64.6138 14.632 65.1578 14.376L65.7338 17.472C65.1418 17.776 64.4938 18.008 63.7898 18.168C63.1018 18.328 62.3098 18.408 61.4138 18.408C59.7978 18.408 58.4378 18.144 57.3338 17.616C56.2458 17.088 55.4218 16.36 54.8618 15.432C54.3018 14.504 54.0218 13.432 54.0218 12.216C54.0218 10.968 54.3178 9.88 54.9098 8.952C55.5178 8.024 56.3258 7.304 57.3338 6.792C58.3418 6.28 59.4538 6.024 60.6698 6.024C62.4778 6.024 63.8618 6.592 64.8218 7.728C65.7818 8.848 66.2618 10.448 66.2618 12.528L59.1098 13.44C59.6378 14.512 60.6298 15.048 62.0858 15.048ZM58.7258 11.232L62.4938 10.44C62.4298 9.928 62.2538 9.552 61.9658 9.312C61.6778 9.056 61.3178 8.928 60.8858 8.928C60.2458 8.928 59.7338 9.152 59.3498 9.6C58.9818 10.032 58.7738 10.576 58.7258 11.232ZM67.9343 18.216V6.192H72.9263V8.808C73.2943 7.912 73.8383 7.224 74.5583 6.744C75.2943 6.264 76.1663 6.024 77.1743 6.024C78.7423 6.024 79.9583 6.568 80.8223 7.656C81.6863 8.728 82.1183 10.248 82.1183 12.216V18.216H77.0543V11.952C77.0543 10.528 76.4783 9.816 75.3263 9.816C74.6383 9.816 74.0783 10.072 73.6463 10.584C73.2143 11.08 72.9983 11.752 72.9983 12.6V18.216H67.9343Z" fill="#F4F4F5"/>
</svg>
